<svg width="36" height="36" viewBox="0 0 36 36" fill="none" xmlns="http://www.w3.org/2000/svg">
<path d="M18 12H6C5.20435 12 4.44129 12.3161 3.87868 12.8787C3.31607 13.4413 3 14.2044 3 15V21C3 21.7957 3.31607 22.5587 3.87868 23.1213C4.44129 23.6839 5.20435 24 6 24H7.5V30C7.5 30.3978 7.65804 30.7794 7.93934 31.0607C8.22064 31.342 8.60218 31.5 9 31.5H12C12.3978 31.5 12.7794 31.342 13.0607 31.0607C13.342 30.7794 13.5 30.3978 13.5 30V24H18L25.5 30V6L18 12ZM22.5 23.4L19.5 21H6V15H19.5L22.5 12.6V23.4ZM32.25 18C32.25 20.565 30.81 22.89 28.5 24V12C30.795 13.125 32.25 15.45 32.25 18Z" fill="#3D3C3C"/>
</svg>
