<svg width="36" height="36" viewBox="0 0 36 36" fill="none" xmlns="http://www.w3.org/2000/svg">
<path d="M30.6833 5.31677L34.4542 6.07052C34.6567 6.11102 34.8233 6.25952 34.8818 6.45977C34.9113 6.55705 34.9139 6.66051 34.8894 6.75916C34.8648 6.85781 34.814 6.94796 34.7422 7.02002L31.653 10.1115C31.2828 10.4796 30.7823 10.6866 30.2603 10.6875H27.6975L21.2625 17.1248C21.3853 17.5883 21.4078 18.0727 21.3287 18.5457C21.2496 19.0186 21.0706 19.4693 20.8037 19.8677C20.5367 20.266 20.1879 20.6029 19.7806 20.8559C19.3732 21.1089 18.9166 21.2722 18.4412 21.3349C17.9658 21.3976 17.4825 21.3582 17.0235 21.2195C16.5644 21.0807 16.1403 20.8458 15.7792 20.5302C15.4181 20.2147 15.1284 19.8258 14.9294 19.3895C14.7303 18.9532 14.6266 18.4796 14.625 18C14.6249 17.4821 14.744 16.9712 14.973 16.5067C15.2021 16.0422 15.5349 15.6366 15.9459 15.3214C16.3568 15.0062 16.8347 14.7898 17.3427 14.6889C17.8507 14.5881 18.3751 14.6055 18.8752 14.7398L25.3125 8.30027V5.74202C25.3125 5.22002 25.5195 4.71827 25.8885 4.34927L28.98 1.25777C29.0521 1.18606 29.1422 1.13522 29.2409 1.11066C29.3395 1.0861 29.443 1.08873 29.5402 1.11827C29.7405 1.17677 29.889 1.34327 29.9295 1.54577L30.6833 5.31677Z" fill="#3D3C3C"/>
<path d="M4.50055 18C4.50286 19.9305 4.91915 21.8379 5.72132 23.5938C6.5235 25.3496 7.69292 26.913 9.15068 28.1785C10.6084 29.444 12.3207 30.3821 14.1718 30.9296C16.023 31.477 17.97 31.6212 19.8816 31.3522C21.7932 31.0832 23.6248 30.4074 25.253 29.3703C26.8812 28.3333 28.2681 26.9591 29.32 25.3405C30.3719 23.7219 31.0645 21.8965 31.351 19.9874C31.6375 18.0784 31.5113 16.1301 30.9808 14.274C30.9063 14.0572 30.8767 13.8275 30.8939 13.5988C30.911 13.3702 30.9745 13.1474 31.0805 12.9441C31.1865 12.7408 31.3327 12.5612 31.5104 12.4162C31.688 12.2712 31.8932 12.1638 32.1137 12.1007C32.3341 12.0376 32.565 12.02 32.7925 12.0489C33.0199 12.0779 33.2391 12.1529 33.4366 12.2693C33.6342 12.3857 33.806 12.541 33.9416 12.7259C34.0772 12.9108 34.1737 13.1214 34.2253 13.3448C35.2525 16.9392 35.0574 20.773 33.6706 24.2445C32.2838 27.7161 29.7837 30.6291 26.5627 32.5265C23.3417 34.4239 19.5819 35.1983 15.8733 34.7283C12.1646 34.2583 8.71691 32.5705 6.07105 29.9295C3.42807 27.2843 1.73839 23.8363 1.26731 20.1268C0.79622 16.4173 1.5704 12.6563 3.4683 9.43445C5.3662 6.21258 8.28034 3.71223 11.7532 2.32595C15.226 0.93968 19.0609 0.745988 22.6558 1.77529C23.0838 1.90041 23.445 2.18989 23.6602 2.58046C23.8755 2.97102 23.9274 3.43091 23.8046 3.85964C23.6818 4.28836 23.3943 4.65104 23.0049 4.86843C22.6155 5.08582 22.1559 5.14024 21.7265 5.01979C19.7163 4.44255 17.5995 4.34026 15.543 4.72099C13.4865 5.10172 11.5466 5.95506 9.87623 7.21369C8.2059 8.47233 6.85085 10.1018 5.91795 11.9737C4.98506 13.8456 4.49983 15.9086 4.50055 18Z" fill="#3D3C3C"/>
<path d="M11.2511 18C11.2512 19.2299 11.5871 20.4363 12.2225 21.4893C12.858 22.5422 13.7688 23.4017 14.8569 23.975C15.9449 24.5483 17.1688 24.8137 18.3966 24.7425C19.6243 24.6713 20.8094 24.2662 21.8238 23.571C22.8381 22.8741 23.6426 21.9131 24.1502 20.792C24.6578 19.6709 24.8492 18.4323 24.7038 17.2103C24.6645 16.9137 24.7049 16.6121 24.8209 16.3363C24.9369 16.0606 25.1244 15.8208 25.3639 15.6415C25.6034 15.4623 25.8863 15.3502 26.1836 15.3166C26.4808 15.2831 26.7817 15.3294 27.0551 15.4508C27.3284 15.5706 27.5651 15.7607 27.741 16.0018C27.9169 16.243 28.0257 16.5264 28.0563 16.8233C28.3008 18.9115 27.8891 21.024 26.8785 22.8677C25.8678 24.7113 24.3083 26.1946 22.4163 27.1117C20.5244 28.0288 18.3939 28.3341 16.3205 27.9854C14.2472 27.6366 12.3338 26.6511 10.846 25.1655C9.35818 23.68 8.36973 21.7681 8.01783 19.6953C7.66594 17.6224 7.96805 15.4915 8.88224 13.5981C9.79643 11.7048 11.2774 10.143 13.1195 9.12955C14.9616 8.11609 17.0735 7.70122 19.1621 7.94253C19.3857 7.96328 19.603 8.02846 19.8011 8.13426C19.9992 8.24006 20.1742 8.38435 20.3158 8.55866C20.4575 8.73297 20.5629 8.9338 20.6259 9.14938C20.6889 9.36496 20.7083 9.59095 20.6828 9.8141C20.6573 10.0373 20.5876 10.2531 20.4776 10.4489C20.3677 10.6448 20.2197 10.8167 20.0425 10.9546C19.8652 11.0926 19.6622 11.1937 19.4453 11.2522C19.2285 11.3106 19.0021 11.3252 18.7796 11.295C17.8338 11.1852 16.8755 11.2767 15.9676 11.5636C15.0597 11.8504 14.2228 12.3261 13.5118 12.9593C12.8007 13.5925 12.2317 14.369 11.8421 15.2378C11.4525 16.1065 11.2511 17.0479 11.2511 18Z" fill="#3D3C3C"/>
</svg>
