<svg width="135" height="122" viewBox="0 0 135 122" fill="none" xmlns="http://www.w3.org/2000/svg">
<path d="M14.4355 64.105V107.153C14.4355 109.788 15.4822 112.315 17.3452 114.178C19.2082 116.041 21.735 117.087 24.3698 117.087H110.466C113.101 117.087 115.628 116.041 117.491 114.178C119.354 112.315 120.4 109.788 120.4 107.153V64.105" stroke="white" stroke-width="9" stroke-linecap="round" stroke-linejoin="round"/>
<path d="M4.5 30.991C4.5 29.2345 5.19776 27.55 6.43977 26.3079C7.68179 25.0659 9.36633 24.3682 11.1228 24.3682H123.711C125.467 24.3682 127.152 25.0659 128.394 26.3079C129.636 27.55 130.333 29.2345 130.333 30.991V57.4822C130.333 59.2387 129.636 60.9232 128.394 62.1652C127.152 63.4072 125.467 64.105 123.711 64.105H11.1228C9.36633 64.105 7.68179 63.4072 6.43977 62.1652C5.19776 60.9232 4.5 59.2387 4.5 57.4822V30.991Z" stroke="white" stroke-width="9" stroke-linejoin="round"/>
<path d="M90.5977 24.3684V11.1228C90.5977 9.36633 89.8999 7.68179 88.6579 6.43977C87.4159 5.19776 85.7314 4.5 83.9749 4.5H50.8608C49.1044 4.5 47.4198 5.19776 46.1778 6.43977C44.9358 7.68179 44.238 9.36633 44.238 11.1228V24.3684M37.6152 57.4825V77.3509M97.2205 57.4825V77.3509" stroke="white" stroke-width="9" stroke-linecap="round" stroke-linejoin="round"/>
</svg>
