<svg width="36" height="25" viewBox="0 0 36 25" fill="none" xmlns="http://www.w3.org/2000/svg">
<path d="M0 0V2.25H21.375V19.125H14.4495C13.9477 17.1911 12.2085 15.75 10.125 15.75C8.0415 15.75 6.30225 17.1911 5.8005 19.125H4.5V13.5H2.25V21.375H5.8005C6.30225 23.3089 8.0415 24.75 10.125 24.75C12.2085 24.75 13.9477 23.3089 14.4495 21.375H23.8005C24.3023 23.3089 26.0415 24.75 28.125 24.75C30.2085 24.75 31.9477 23.3089 32.4495 21.375H36V12.1995L35.9291 12.0229L33.6791 5.27288L33.435 4.5H23.625V0H0ZM1.125 4.5V6.75H11.25V4.5H1.125ZM23.625 6.75H31.8161L33.75 12.5156V19.125H32.4495C31.9477 17.1911 30.2085 15.75 28.125 15.75C26.0415 15.75 24.3023 17.1911 23.8005 19.125H23.625V6.75ZM2.25 9V11.25H9V9H2.25ZM10.125 18C11.3816 18 12.375 18.9934 12.375 20.25C12.375 21.5066 11.3816 22.5 10.125 22.5C8.86838 22.5 7.875 21.5066 7.875 20.25C7.875 18.9934 8.86838 18 10.125 18ZM28.125 18C29.3816 18 30.375 18.9934 30.375 20.25C30.375 21.5066 29.3816 22.5 28.125 22.5C26.8684 22.5 25.875 21.5066 25.875 20.25C25.875 18.9934 26.8684 18 28.125 18Z" fill="#3D3C3C"/>
</svg>
