<svg width="49" height="49" viewBox="0 0 49 49" fill="none" xmlns="http://www.w3.org/2000/svg">
<path d="M24.5 0C25.1092 0 25.6934 0.241991 26.1241 0.672739C26.5549 1.10349 26.7969 1.68771 26.7969 2.29688V9.00375L31.2988 4.50188C31.509 4.27621 31.7626 4.09521 32.0444 3.96967C32.3261 3.84413 32.6302 3.77663 32.9387 3.77119C33.2471 3.76575 33.5534 3.82248 33.8394 3.938C34.1254 4.05352 34.3852 4.22546 34.6033 4.44357C34.8214 4.66168 34.9934 4.92148 35.1089 5.20748C35.2244 5.49348 35.2811 5.79982 35.2757 6.10823C35.2702 6.41663 35.2027 6.72077 35.0772 7.00252C34.9517 7.28427 34.7707 7.53785 34.545 7.74813L26.7969 15.4962V22.2031H33.5037L41.2519 14.455C41.4622 14.2293 41.7157 14.0483 41.9975 13.9228C42.2792 13.7973 42.5834 13.7298 42.8918 13.7243C43.2002 13.7189 43.5065 13.7756 43.7925 13.8911C44.0785 14.0066 44.3383 14.1786 44.5564 14.3967C44.7745 14.6148 44.9465 14.8746 45.062 15.1606C45.1775 15.4466 45.2343 15.7529 45.2288 16.0614C45.2234 16.3698 45.1559 16.6739 45.0303 16.9556C44.9048 17.2374 44.7238 17.491 44.4981 17.7013L39.9963 22.2031H46.7031C47.3123 22.2031 47.8965 22.4451 48.3273 22.8759C48.758 23.3066 49 23.8908 49 24.5C49 25.1092 48.758 25.6934 48.3273 26.1241C47.8965 26.5549 47.3123 26.7969 46.7031 26.7969H39.9963L44.4981 31.2988C44.7238 31.509 44.9048 31.7626 45.0303 32.0444C45.1559 32.3261 45.2234 32.6302 45.2288 32.9387C45.2343 33.2471 45.1775 33.5534 45.062 33.8394C44.9465 34.1254 44.7745 34.3852 44.5564 34.6033C44.3383 34.8214 44.0785 34.9934 43.7925 35.1089C43.5065 35.2244 43.2002 35.2811 42.8918 35.2757C42.5834 35.2702 42.2792 35.2027 41.9975 35.0772C41.7157 34.9517 41.4622 34.7707 41.2519 34.545L33.5037 26.7969H26.7969V33.5037L34.545 41.2519C34.7707 41.4622 34.9517 41.7157 35.0772 41.9975C35.2027 42.2792 35.2702 42.5834 35.2757 42.8918C35.2811 43.2002 35.2244 43.5065 35.1089 43.7925C34.9934 44.0785 34.8214 44.3383 34.6033 44.5564C34.3852 44.7745 34.1254 44.9465 33.8394 45.062C33.5534 45.1775 33.2471 45.2343 32.9387 45.2288C32.6302 45.2234 32.3261 45.1559 32.0444 45.0303C31.7626 44.9048 31.509 44.7238 31.2988 44.4981L26.7969 39.9963V46.7031C26.7969 47.3123 26.5549 47.8965 26.1241 48.3273C25.6934 48.758 25.1092 49 24.5 49C23.8908 49 23.3066 48.758 22.8759 48.3273C22.4451 47.8965 22.2031 47.3123 22.2031 46.7031V39.9963L17.7013 44.4981C17.2658 44.9038 16.6899 45.1247 16.0949 45.1142C15.4999 45.1037 14.9321 44.8627 14.5113 44.4418C14.0905 44.021 13.8494 43.4533 13.8389 42.8582C13.8284 42.2632 14.0493 41.6873 14.455 41.2519L22.2031 33.5037V26.7969H15.4962L7.74813 34.545C7.31271 34.9507 6.73682 35.1716 6.14177 35.1611C5.54673 35.1506 4.97899 34.9095 4.55816 34.4887C4.13733 34.0679 3.89628 33.5001 3.88578 32.9051C3.87528 32.3101 4.09616 31.7342 4.50188 31.2988L9.00375 26.7969H2.29688C1.68771 26.7969 1.10349 26.5549 0.672739 26.1241C0.241991 25.6934 0 25.1092 0 24.5C0 23.8908 0.241991 23.3066 0.672739 22.8759C1.10349 22.4451 1.68771 22.2031 2.29688 22.2031H9.00375L4.50188 17.7013C4.09616 17.2658 3.87528 16.6899 3.88578 16.0949C3.89628 15.4999 4.13733 14.9321 4.55816 14.5113C4.97899 14.0905 5.54673 13.8494 6.14177 13.8389C6.73682 13.8284 7.31271 14.0493 7.74813 14.455L15.4962 22.2031H22.2031V15.4962L14.455 7.74813C14.0493 7.31271 13.8284 6.73682 13.8389 6.14177C13.8494 5.54673 14.0905 4.97899 14.5113 4.55816C14.9321 4.13733 15.4999 3.89628 16.0949 3.88578C16.6899 3.87528 17.2658 4.09616 17.7013 4.50188L22.2031 9.00375V2.29688C22.2031 1.68771 22.4451 1.10349 22.8759 0.672739C23.3066 0.241991 23.8908 0 24.5 0Z" fill="white"/>
</svg>
