<svg width="61" height="62" viewBox="0 0 61 62" fill="none" xmlns="http://www.w3.org/2000/svg">
<path d="M7.74604 30.4031C7.75262 27.4609 8.36216 24.5523 9.53581 21.8627C10.7095 19.1731 12.4215 16.7616 14.5628 14.7817L20.7568 21.1057V5.1665H5.08237L10.8672 11.01C7.19479 14.481 4.58375 18.9537 3.3463 23.8932C2.10885 28.8327 2.29738 34.0299 3.88934 38.8634C5.4813 43.6969 8.40931 47.962 12.3232 51.1487C16.2372 54.3355 20.9713 56.3089 25.9596 56.8332V51.4676C20.9237 50.8058 16.2972 48.3026 12.9452 44.4258C9.59311 40.5491 7.7449 35.5642 7.74604 30.4031ZM58.4574 31.7309C58.4743 25.1442 56.0904 18.7844 51.7657 13.8788C47.441 8.97328 41.482 5.86954 35.0385 5.1665V10.5321C40.0859 11.2231 44.7149 13.7534 48.0649 17.6525C51.415 21.5516 53.2582 26.5544 53.252 31.7309C53.2475 34.6538 52.6382 37.5431 51.4638 40.2112C50.2895 42.8792 48.5762 45.2665 46.4353 47.218L40.1218 40.894V56.8332H55.8547L50.1309 50.9897C52.7554 48.5407 54.8507 45.5643 56.284 42.2491C57.7174 38.9338 58.4574 35.3521 58.4574 31.7309Z" fill="white"/>
<path d="M31.2359 41.3335L29.871 40.0677C25.0164 35.5934 21.8088 32.6406 21.8088 29.0188C21.8021 28.3248 21.9315 27.6364 22.1897 26.9939C22.4479 26.3514 22.8295 25.7677 23.3124 25.2769C23.7952 24.7862 24.3695 24.3983 25.0016 24.1359C25.6338 23.8735 26.3111 23.7419 26.9938 23.7488C27.8011 23.7545 28.5977 23.9362 29.33 24.2815C30.0622 24.6269 30.713 25.128 31.2384 25.7509C31.7636 25.1283 32.414 24.6274 33.1457 24.2821C33.8775 23.9367 34.6737 23.7548 35.4805 23.7488C36.1633 23.7419 36.8406 23.8735 37.4727 24.1359C38.1048 24.3983 38.6791 24.7862 39.162 25.2769C39.6448 25.7677 40.0265 26.3514 40.2846 26.9939C40.5428 27.6364 40.6723 28.3248 40.6655 29.0188C40.6655 32.6406 37.4604 35.5934 32.6033 40.078L31.2359 41.3335Z" fill="white"/>
</svg>
