<?xml version="1.0" encoding="UTF-8"?>
<svg id="Layer_1" data-name="Layer 1" xmlns="http://www.w3.org/2000/svg" viewBox="0 0 41.4 40.49">
  <defs>
    <style>
      .cls-1 {
        fill: #6bb044;
      }

      .cls-2 {
        fill: #e48025;
      }

      .cls-3 {
        fill: none;
        stroke: #231f20;
        stroke-miterlimit: 10;
        stroke-width: .14px;
      }

      .cls-4 {
        fill: #239246;
      }
    </style>
  </defs>
  <path class="cls-2" d="M35.12,19.75c-.49-.05-.98-.06-1.48-.06-7.57.09-13.73,5.58-14.31,12.49-2.08-4.83-7.07-8.25-12.92-8.44-.09-.57-.14-1.16-.15-1.75-.09-7.48,6.34-13.61,14.35-13.69,7.32-.09,13.43,4.9,14.5,11.46Z"/>
  <path class="cls-1" d="M10.77,31.62c-.63-.19-1.29-.33-2-.41,0,0,6.29,2.5,7.6,9.26,0,0-14.47,1.18-16.37-13.83,0,0,3.17-.99,6.99-.58,4.1.44,8.94,2.49,11.4,9.11.49,1.31.89,2.8,1.17,4.5l-.86.2s-.94-3.04-3.48-5.54c-1.14-1.12-2.6-2.14-4.45-2.7h0Z"/>
  <path class="cls-4" d="M38.73,23.12s-.49,12.41-14.85,13.21c0,0,.1-.55.4-1.39.59-1.65,2-4.45,5.07-6.53,0,0-4.72,1.11-7.13,6.87-.1.25-.21.5-.3.77l-1.62-.26-.15-.03s.03-.15.08-.42h.01s0-.01,0-.02h0c.52-2.35,3.55-13.25,15.03-12.69,1.08.05,2.23.21,3.47.48Z"/>
  <path class="cls-3" d="M20.24,35.34h-.01s0-.01,0-.02c0,0,.01.01,0,.02Z"/>
  <path class="cls-2" d="M21.83,1.1v4.39c0,.6-.49,1.1-1.1,1.1s-1.1-.49-1.1-1.1V1.1c0-.61.49-1.1,1.1-1.1.3,0,.58.12.78.32.19.2.32.47.32.78Z"/>
  <path class="cls-2" d="M12.45,9.6c-.46.39-1.16.33-1.55-.13l-2.82-3.37c-.39-.46-.33-1.16.13-1.55.21-.17.46-.26.71-.26.31,0,.63.13.84.39l2.82,3.37c.39.46.33,1.16-.13,1.55Z"/>
  <path class="cls-2" d="M6.53,16.26c-.09.6-.66,1.01-1.26.91l-4.34-.68c-.6-.09-1.01-.66-.92-1.26.09-.54.55-.93,1.08-.93.06,0,.12,0,.18.02l4.34.68c.6.1,1,.66.91,1.26Z"/>
  <path class="cls-2" d="M33.72,5.37c0,.25-.09.51-.27.72l-2.86,3.33c-.4.46-1.09.51-1.55.12-.46-.4-.51-1.09-.12-1.55l2.87-3.34c.39-.46,1.08-.51,1.55-.12.25.22.38.52.38.84Z"/>
  <path class="cls-2" d="M41.4,15.45c0,.53-.39,1-.93,1.08l-4.34.66c-.6.09-1.16-.32-1.25-.92-.09-.6.32-1.16.92-1.25l4.34-.66c.6-.09,1.16.32,1.25.92.01.05.01.11.01.17Z"/>
</svg>