<svg width="55" height="55" viewBox="0 0 55 55" fill="none" xmlns="http://www.w3.org/2000/svg">
<path d="M44.5625 54.25C42.8619 54.3451 41.1685 53.965 39.6717 53.1521C38.175 52.3393 36.9341 51.1258 36.088 49.6476C35.2419 48.1694 34.824 46.4848 34.8811 44.7826C34.9383 43.0803 35.4681 41.4275 36.4114 40.0094L42.9369 29.946C43.1128 29.6749 43.3536 29.4521 43.6375 29.2978C43.9214 29.1436 44.2394 29.0628 44.5625 29.0628C44.8856 29.0628 45.2036 29.1436 45.4875 29.2978C45.7714 29.4521 46.0122 29.6749 46.1881 29.946L52.6109 39.8466C53.6373 41.371 54.2061 43.1573 54.25 44.9946C54.1875 47.5048 53.1331 49.8881 51.3175 51.6227C49.5019 53.3573 47.073 54.302 44.5625 54.25ZM44.5625 34.5592L39.7033 42.0496C39.3062 42.7994 39.0826 43.6288 39.0488 44.4766C39.015 45.3244 39.1719 46.169 39.508 46.948C39.8441 47.7271 40.3508 48.4208 40.9907 48.9779C41.6306 49.5351 42.3874 49.9415 43.2053 50.1672C44.0232 50.3929 44.8813 50.4322 45.7164 50.282C46.5515 50.1319 47.3422 49.7963 48.0303 49.2999C48.7184 48.8034 49.2863 48.1589 49.6921 47.4138C50.0979 46.6686 50.3313 45.8419 50.375 44.9946C50.3335 43.8788 49.9672 42.7993 49.321 41.8888L44.5625 34.5592ZM17.4375 42.625H13.5625C13.5728 33.8926 17.0462 25.5208 23.221 19.346C29.3958 13.1712 37.7676 9.69776 46.5 9.6875H54.25V13.5625H46.5C38.7948 13.5712 31.4077 16.636 25.9593 22.0843C20.511 27.5327 17.4462 34.9198 17.4375 42.625Z" fill="white"/>
<path d="M27.125 42.625H23.25C23.2572 36.4609 25.709 30.5514 30.0677 26.1927C34.4264 21.834 40.3359 19.3822 46.5 19.375H54.25V23.25H46.5C41.363 23.2551 36.4379 25.2981 32.8055 28.9305C29.1731 32.5629 27.1301 37.488 27.125 42.625Z" fill="white"/>
<path d="M46.5 1.52499e-05C38.2402 -0.00699249 30.1586 2.40132 23.25 6.92852C16.3414 2.40132 8.2598 -0.00699249 0 1.52499e-05V3.87502C7.0034 3.86622 13.8769 5.76512 19.8826 9.36783C18.29 10.6434 16.7911 12.0316 15.3973 13.5218C10.654 11.0081 5.36821 9.69178 0 9.68752V13.5625C4.44694 13.5608 8.83497 14.5796 12.8262 16.5405C11.6145 18.1005 10.5126 19.743 9.52863 21.4559C6.53526 20.0964 3.28761 19.3871 0 19.375V23.25C2.66979 23.2536 5.30943 23.8146 7.75 24.8969C5.19502 30.4577 3.87313 36.5053 3.875 42.625H7.75C7.76179 32.3515 11.8482 22.5021 19.1126 15.2377C26.3771 7.97318 36.2265 3.88681 46.5 3.87502H54.25V1.52499e-05H46.5Z" fill="white"/>
</svg>
