<svg width="36" height="36" viewBox="0 0 36 36" fill="none" xmlns="http://www.w3.org/2000/svg">
<path fill-rule="evenodd" clip-rule="evenodd" d="M31.5 6V27H24V33L14.85 27H4.5V6H31.5ZM18.0657 20.1375C17.5853 20.1375 17.1868 20.2942 16.8704 20.6077C16.554 20.9212 16.3958 21.3123 16.3958 21.7811C16.3958 22.2733 16.5511 22.6776 16.8616 22.994C17.1722 23.3104 17.5736 23.4686 18.0657 23.4686C18.5462 23.4686 18.9432 23.3104 19.2567 22.994C19.5702 22.6776 19.7269 22.2821 19.7269 21.8074C19.7269 21.327 19.5701 20.9285 19.2567 20.6121C18.9431 20.2957 18.5462 20.1375 18.0657 20.1375ZM18.7161 10.575C17.4095 10.575 16.1058 10.9149 14.805 11.5946L15.5872 13.5457C16.6477 12.9422 17.553 12.6404 18.303 12.6405C18.7601 12.6405 19.1219 12.7503 19.3885 12.97C19.6551 13.1897 19.7884 13.4871 19.7884 13.8621C19.7884 14.161 19.6932 14.4217 19.5028 14.6444C19.3599 14.8113 19.0894 15.0409 18.6912 15.3332L17.7483 16.0082C17.6675 16.068 17.5876 16.1289 17.5087 16.1911L17.345 16.3275C17.1986 16.4593 17.0814 16.6101 16.9935 16.7801C16.8411 17.073 16.765 17.5916 16.765 18.3358V19.1092H19.3577V18.7489C19.3577 18.2156 19.4251 17.845 19.5599 17.637C19.6946 17.429 20.055 17.1287 20.6409 16.7362L20.9178 16.5467C21.5381 16.1087 21.979 15.6987 22.2405 15.3167C22.5394 14.8802 22.6888 14.3543 22.6888 13.7391C22.6888 12.8308 22.3812 12.0926 21.7659 11.5242C21.0687 10.8914 20.0521 10.575 18.7161 10.575Z" fill="#3D3C3C"/>
</svg>
