<svg width="234" height="39" viewBox="0 0 234 39" fill="none" xmlns="http://www.w3.org/2000/svg">
<path d="M33.9084 18.9942C33.4394 18.9475 32.9652 18.9319 32.4806 18.9371C25.1701 19.0202 19.2248 24.298 18.6672 30.9459C16.6559 26.3064 11.8465 23.011 6.19816 22.8293C6.10958 22.2792 6.06268 21.7136 6.05747 21.1427C5.9741 13.9551 12.18 8.05968 19.9126 7.97665C26.9782 7.89361 32.8767 12.6888 33.9084 18.9942Z" fill="#E48025"/>
<path d="M10.3972 30.406C9.79275 30.2244 9.15184 30.0843 8.46404 30.0116C8.46404 30.0116 14.5344 32.4196 15.8058 38.9118C15.8058 38.9118 1.8361 40.0484 0.00195312 25.616C0.00195312 25.616 3.06581 24.6663 6.74974 25.0607C10.7046 25.4811 15.3786 27.4583 17.7598 33.8208C18.234 35.0819 18.6144 36.5142 18.8853 38.1438L18.0568 38.3358C18.0568 38.3358 17.145 35.4088 14.696 33.0112C13.5965 31.9318 12.1844 30.9561 10.4024 30.4112H10.3972V30.406Z" fill="#6BB044"/>
<path d="M37.3934 22.2271C37.3934 22.2271 36.9244 34.1632 23.0537 34.9313C23.0537 34.9313 23.1475 34.4072 23.4445 33.5976C24.0176 32.0095 25.3776 29.3161 28.3373 27.3181C28.3373 27.3181 23.778 28.3872 21.454 33.9245C21.355 34.1632 21.256 34.4072 21.1674 34.6614L19.599 34.4123L19.4531 34.3864C19.4531 34.3864 19.4792 34.2411 19.5313 33.9816H19.5417C19.5417 33.9816 19.5417 33.9712 19.5365 33.966C20.0419 31.7034 22.9651 21.2255 34.0429 21.7652C35.0851 21.8171 36.2001 21.9624 37.3934 22.2271Z" fill="#239246"/>
<path d="M19.5418 33.9814H19.5312C19.5312 33.9814 19.5312 33.971 19.5312 33.9658C19.5365 33.9658 19.5418 33.9762 19.5366 33.9814H19.5418Z" stroke="#231F20" stroke-width="0.26" stroke-miterlimit="10"/>
<path d="M21.0797 1.05868V5.28303C21.0797 5.86427 20.6055 6.33653 20.022 6.33653C19.4384 6.33653 18.959 5.86427 18.959 5.28303V1.05868C18.959 0.472255 19.4332 0 20.022 0C20.3138 0 20.5795 0.119361 20.7723 0.311377C20.9599 0.503393 21.0797 0.762874 21.0797 1.05868Z" fill="#E48025"/>
<path d="M12.0229 9.2267C11.5748 9.60036 10.9026 9.54327 10.5275 9.09696L7.80228 5.85864C7.42712 5.41233 7.48444 4.74287 7.93255 4.36922C8.13055 4.20315 8.37546 4.12012 8.61514 4.12012C8.91736 4.12012 9.21958 4.24986 9.428 4.49896L12.1532 7.73728C12.5283 8.18359 12.471 8.85305 12.0229 9.2267Z" fill="#E48025"/>
<path d="M6.30163 15.6365C6.21305 16.2125 5.66593 16.6069 5.08755 16.5135L0.898195 15.8596C0.319813 15.7714 -0.0761956 15.2265 0.0123854 14.6504C0.0957557 14.1315 0.543871 13.7578 1.05451 13.7578C1.11183 13.7578 1.16915 13.7578 1.22647 13.7734L5.42103 14.4273C5.99941 14.5207 6.39021 15.0604 6.30163 15.6365Z" fill="#E48025"/>
<path d="M32.5526 5.16341C32.5526 5.40732 32.4641 5.65123 32.2921 5.85363L29.5305 9.05562C29.1449 9.49674 28.4779 9.54864 28.035 9.16979C27.5869 8.78576 27.54 8.12149 27.9204 7.68037L30.6872 4.47319C31.0676 4.03207 31.7346 3.98017 32.1827 4.35902C32.4276 4.57179 32.5526 4.86241 32.5526 5.16341Z" fill="#E48025"/>
<path d="M39.9675 14.8582C39.9675 15.372 39.5924 15.8235 39.0661 15.9013L34.8715 16.5396C34.2931 16.6227 33.7512 16.2282 33.6626 15.6522C33.5741 15.0761 33.9753 14.5364 34.5537 14.4482L38.7482 13.8151C39.3266 13.7268 39.8685 14.1213 39.9571 14.6973C39.9675 14.7492 39.9675 14.8063 39.9675 14.8582Z" fill="#E48025"/>
<path d="M46.6863 13.0576H44.9668V25.876H46.6863V13.0576Z" fill="#231F20"/>
<path d="M64.5526 13.0573H60.3736V16.2593C60.4205 17.235 60.8478 17.7332 61.6607 17.7539H64.5578V21.8122H61.8795C60.0662 21.7914 58.8157 21.288 58.1279 20.3176C57.3879 21.314 56.1374 21.8122 54.3762 21.8122H51.6979V17.7539H54.595C55.4287 17.7072 55.856 17.209 55.8821 16.2593V13.0573H51.7031V8.99902H64.5682V13.0573H64.5526ZM55.8664 27.5831H51.6875V23.5248H64.5526V27.5831H60.3736V29.934H55.8716V27.5831H55.8664Z" fill="#231F20"/>
<path d="M71.2879 13.0576H69.5684V25.876H71.2879V13.0576Z" fill="#231F20"/>
<path d="M90.0849 6.99285V11.0459H89.0115C89.5743 11.897 89.8556 12.8208 89.8556 13.8172C89.8556 15.6907 88.9855 17.1697 87.2503 18.2595C86.0727 18.9964 84.7179 19.3597 83.186 19.3597C80.8881 19.3597 79.0852 18.628 77.7826 17.1541C76.9384 16.1577 76.5164 15.0471 76.5164 13.812C76.5424 12.7948 76.8238 11.8711 77.3605 11.0408H76.2871V6.98766H80.7735V5.28027H85.6037V6.98766H90.0901L90.0849 6.99285ZM83.1808 15.5246C84.1031 15.5246 84.7388 15.1457 85.0983 14.3881C85.2025 14.1286 85.2494 13.8691 85.2494 13.6044C85.2494 12.7533 84.8378 12.1617 84.0249 11.8296C83.7435 11.7362 83.4622 11.6895 83.1808 11.6895C82.2585 11.6895 81.6228 12.0683 81.2633 12.826C81.1591 13.0855 81.1122 13.3449 81.1122 13.6096C81.1122 14.4607 81.5186 15.0575 82.3367 15.3845C82.618 15.4779 82.8994 15.5246 83.1808 15.5246ZM101.699 29.5988H104.805V33.6519H101.929C99.9851 33.6312 98.646 33.133 97.9009 32.1573C97.1088 33.1537 95.7645 33.6519 93.873 33.6519H90.9968V29.5988H94.1023C94.9985 29.5521 95.4571 29.0539 95.4831 28.1042V20.8543H100.313V28.1042C100.365 29.0747 100.824 29.5729 101.694 29.5988H101.699ZM99.9747 6.14175H104.805V18.9342H99.9747V14.4555H97.4423V18.9342H92.6121V6.14175H97.4423V10.4076H99.9747V6.14175Z" fill="#231F20"/>
<path d="M120.507 14.4584H123.613V18.5115H120.737C118.793 18.4907 117.454 17.9925 116.709 17.0169C115.917 18.0133 114.572 18.5115 112.681 18.5115H109.805V14.4584H112.91C113.806 14.4117 114.265 13.9135 114.291 12.9638V5.71387H119.121V12.9638C119.173 13.9342 119.632 14.4324 120.502 14.4584H120.507ZM117.173 20.4264H130.976V28.5274H122.003C122.055 29.0724 122.362 29.3578 122.925 29.3785H130.976V33.2189H121.774C119.09 33.2189 117.584 32.2121 117.251 30.1985C117.199 29.8664 117.173 29.5238 117.173 29.1658V25.1127H126.145V24.2616H117.173V20.4213V20.4264ZM130.97 5.71387V9.97974H133.732V14.0328H130.97V18.5115H126.14V5.71387H130.97Z" fill="#231F20"/>
<path d="M146.324 22.7746C148.779 22.7746 150.748 23.605 152.228 25.2604C153.354 26.5163 153.916 27.9591 153.916 29.5938C153.916 31.7994 152.994 33.5638 151.155 34.8872C149.748 35.9044 148.138 36.4129 146.324 36.4129C143.87 36.4129 141.901 35.5826 140.421 33.9271C139.295 32.6712 138.732 31.2285 138.732 29.5938C138.732 27.3882 139.655 25.6237 141.494 24.3004C142.901 23.2832 144.511 22.7746 146.324 22.7746ZM148.737 17.4449H153.223V21.498H139.42V17.4449H143.907V15.3119C141.249 15.1718 139.78 13.999 139.498 11.7934C139.446 11.4872 139.42 11.1654 139.42 10.8333V2.51953H144.251V9.76943C144.303 10.7399 144.761 11.2381 145.631 11.264H153.223V15.3171H148.737V17.4501V17.4449ZM146.324 32.3702C147.45 32.3702 148.268 31.8824 148.779 30.9119C148.982 30.4864 149.086 30.0453 149.086 29.599C149.086 28.4832 148.601 27.6684 147.627 27.1495C147.215 26.9367 146.783 26.8277 146.324 26.8277C145.199 26.8277 144.381 27.3155 143.87 28.286C143.667 28.7115 143.563 29.1527 143.563 29.599C143.563 30.7147 144.047 31.5295 145.022 32.0537C145.428 32.2664 145.866 32.3754 146.324 32.3754V32.3702Z" fill="#231F20"/>
<path d="M175.939 5.92427H180.769V18.7167H175.939V14.238H173.792C173.204 16.1582 171.911 17.5542 169.921 18.4313C168.847 18.9035 167.712 19.1422 166.508 19.1422C164.054 19.1422 162.084 18.3119 160.604 16.6564C159.479 15.4005 158.916 13.9578 158.916 12.3231C158.916 10.1175 159.838 8.35301 161.678 7.02965C163.085 6.01249 164.695 5.50391 166.508 5.50391C168.962 5.50391 170.942 6.34462 172.453 8.02606C173.042 8.69033 173.475 9.41169 173.756 10.1953H175.939V5.92946V5.92427ZM166.508 15.0943C167.633 15.0943 168.451 14.6065 168.962 13.636C169.165 13.2105 169.27 12.7694 169.27 12.3231C169.27 11.2073 168.785 10.3925 167.811 9.87357C167.399 9.66079 166.966 9.55181 166.508 9.55181C165.382 9.55181 164.564 10.0396 164.054 11.0101C163.85 11.4356 163.746 11.8768 163.746 12.3231C163.746 13.4388 164.231 14.2536 165.205 14.7778C165.612 14.9905 166.049 15.0995 166.508 15.0995V15.0943ZM180.769 20.6368V28.9506C180.769 31.4883 179.592 32.9414 177.242 33.3203C176.757 33.3929 176.247 33.4293 175.71 33.4293H172.031C169.144 33.4293 167.493 32.3654 167.086 30.2325C167.008 29.8277 166.972 29.4021 166.972 28.9558V20.642H171.802V22.9877H175.944V20.642H180.775L180.769 20.6368ZM173.183 29.3814H174.564C175.46 29.3346 175.918 28.8364 175.944 27.8867V27.0356H171.802V27.8867C171.854 28.8572 172.313 29.3554 173.183 29.3814Z" fill="#231F20"/>
<path d="M202.111 5.71643H206.941V18.5089H202.111V14.0302H199.578V18.5089H194.748V11.2589C194.696 10.2885 194.237 9.79029 193.367 9.76434H185.775V5.71124H194.519C197.432 5.71124 199.083 6.77512 199.464 8.90805C199.542 9.26095 199.578 9.61903 199.578 9.97192H202.111V5.70605V5.71643ZM199.349 29.1735H206.941V33.2266H198.198C195.311 33.2266 193.659 32.1627 193.253 30.0298C193.175 29.625 193.138 29.1995 193.138 28.7532V20.4394H197.968V27.6893C198.02 28.6597 198.479 29.158 199.349 29.1839V29.1735Z" fill="#231F20"/>
<path d="M222.644 14.4606H225.75V18.5137H222.873C220.93 18.493 219.591 17.9948 218.846 17.0191C218.053 18.0155 216.709 18.5137 214.818 18.5137H211.941V14.4606H215.047C215.943 14.4139 216.402 13.9157 216.428 12.966V5.71613H221.258V12.966C221.31 13.9365 221.769 14.4347 222.639 14.4606H222.644ZM219.304 20.4287H233.107V28.5297H224.134C224.186 29.0746 224.494 29.36 225.057 29.3808H233.107V33.2211H223.905C221.222 33.2211 219.716 32.2143 219.382 30.2008C219.33 29.8686 219.304 29.5261 219.304 29.168V25.1149H228.277V24.2638H219.304V20.4235V20.4287ZM228.277 5.71613H233.107V18.5085H228.277V14.0299H225.515V9.97681H228.277V5.71094V5.71613Z" fill="#231F20"/>
</svg>
